# xmcd
#
# Track frame offsets:
#	150
#	11244
#	23100
#	33631
#	44875
#	58868
#	70001
#	82737
#	96794
#	109059
#	124375
#	135679
#	147022
#	161777
#	174629
#
# Disc length: 2479 seconds
#
# Revision: 1
# Processed by: cddbd v1.5.2PL0 Copyright (c) Steve Scherf et al.
# Submitted via: audiograbber 1.83.01
#
DISCID=d609ad0f
DTITLE=Chartbuster Karaoke Time Line - 80096
DYEAR=1965
DGENRE=Country
TTITLE0=Buck Owens - I'VE GOT A TIGER BY THE TAIL
TTITLE1=Roger Miller - King of the Road
TTITLE2=Sonny James - Behind the Tear
TTITLE3=Warner Mack - The Bridge Washed Out
TTITLE4=Del Reeves - Girl on the Billboard
TTITLE5=Jim Reeves - Is It Really Over?
TTITLE6="Little" Jimmy Dickens - May the Bird of Paradise Fly Up Your Nose
TTITLE7=Eddy Arnold - Make the World Go Away
TTITLE8=Marty Robbins - Ribbon of Darkness
TTITLE9=Jim Reeves - This Is It
TTITLE10=Eddy Arnold - What's He Doing in My World
TTITLE11=Sonny James - You're the Only World I Know
TTITLE12=Johnny Cash - Orange Blossom Special
TTITLE13=Merle Haggard - (My Friends Are Gonna Be) Strangers
TTITLE14=Buck Owens - Before You Go
EXTD=
EXTT0=
EXTT1=
EXTT2=
EXTT3=
EXTT4=
EXTT5=
EXTT6=
EXTT7=
EXTT8=
EXTT9=
EXTT10=
EXTT11=
EXTT12=
EXTT13=
EXTT14=
PLAYORDER=
